<svg width="19" height="19" viewBox="0 0 19 19" fill="none" xmlns="http://www.w3.org/2000/svg">
<path d="M15.1966 5.32031H3.30371V6.70066H15.1966V5.32031Z" fill="#737373"/>
<path d="M15.1966 5.32031H3.30371V6.70066H15.1966V5.32031Z" stroke="#F5FEFF"/>
<path d="M15.1966 9.11621H3.30371V10.4966H15.1966V9.11621Z" fill="#737373"/>
<path d="M15.1966 9.11621H3.30371V10.4966H15.1966V9.11621Z" stroke="#F5FEFF"/>
<path d="M9.5805 12.9121H3.30371V14.2925H9.5805V12.9121Z" fill="#737373"/>
<path d="M9.5805 12.9121H3.30371V14.2925H9.5805V12.9121Z" stroke="#F5FEFF"/>
<path d="M18.5 0.833984H0V18.7784H18.5V0.833984ZM17.1786 17.3981H1.32143V2.21433H17.1786V17.3981Z" fill="#737373"/>
<path d="M18.5 0.833984H0V18.7784H18.5V0.833984ZM17.1786 17.3981H1.32143V2.21433H17.1786V17.3981Z" stroke="#F5FEFF"/>
</svg>
