<svg width="19" height="18" viewBox="0 0 19 18" fill="none" xmlns="http://www.w3.org/2000/svg">
<path d="M17.7333 0.611328H0.933334C0.685887 0.611629 0.448657 0.714381 0.273685 0.897043C0.0987138 1.07971 0.000288184 1.32736 0 1.58569V16.5259C0.000288184 16.7842 0.0987138 17.0318 0.273685 17.2145C0.448657 17.3972 0.685887 17.4999 0.933334 17.5002H4.35556V15.1121C4.35562 14.9674 4.39273 14.8253 4.46304 14.7005C4.53336 14.5758 4.63432 14.4729 4.75549 14.4026L8.33245 12.3271L7.15556 9.25547V6.78227C7.15556 6.1793 7.385 5.60102 7.79341 5.17466C8.20183 4.74829 8.75575 4.50876 9.33334 4.50876C9.91092 4.50876 10.4648 4.74829 10.8733 5.17466C11.2817 5.60102 11.5111 6.1793 11.5111 6.78227V9.25547L10.3342 12.3269L13.9112 14.4026C14.0323 14.4729 14.1333 14.5758 14.2036 14.7005C14.2739 14.8253 14.311 14.9674 14.3111 15.1121V17.5002H17.7333C17.9808 17.4999 18.218 17.3972 18.393 17.2145C18.568 17.0318 18.6664 16.7842 18.6667 16.5259V1.58569C18.6664 1.32736 18.568 1.07971 18.393 0.897043C18.218 0.714381 17.9808 0.611629 17.7333 0.611328V0.611328ZM17.4222 16.2011H15.5556V15.1121C15.5554 14.7357 15.459 14.3662 15.2762 14.0418C15.0934 13.7174 14.8308 13.4499 14.5157 13.2669V13.2669L11.8967 11.7474L12.7556 9.50564V6.78227C12.7556 5.83474 12.395 4.92602 11.7532 4.25602C11.1114 3.58602 10.241 3.20962 9.33334 3.20962C8.42571 3.20962 7.55525 3.58602 6.91346 4.25602C6.27167 4.92602 5.91111 5.83474 5.91111 6.78227V9.50564L6.76997 11.7474L4.15092 13.2671C3.83587 13.45 3.57335 13.7175 3.39054 14.0419C3.20773 14.3663 3.11126 14.7358 3.11111 15.1121V16.2011H1.24444V1.91047H17.4222V16.2011Z" fill="#737373"/>
</svg>
